<?xml version="1.0" encoding="UTF-8"?>
<svg id="Layer_2" data-name="Layer 2" xmlns="http://www.w3.org/2000/svg" viewBox="0 0 584.55 242.86">
  <g>
    <rect x="65.35" y="51" width="502.56" height="45.23" fill="none" stroke="#231f20" stroke-miterlimit="10"/>
    <g>
      <g>
        <line x1="152.97" y1="51.16" x2="152.97" y2="52.16" fill="none" stroke="#231f20" stroke-miterlimit="10"/>
        <line x1="152.97" y1="54.21" x2="152.97" y2="94.04" fill="none" stroke="#231f20" stroke-dasharray="0 0 2.04 2.04" stroke-miterlimit="10"/>
        <line x1="152.97" y1="95.07" x2="152.97" y2="96.07" fill="none" stroke="#231f20" stroke-miterlimit="10"/>
      </g>
      <g>
        <line x1="262.08" y1="51.16" x2="262.08" y2="52.16" fill="none" stroke="#231f20" stroke-miterlimit="10"/>
        <line x1="262.08" y1="54.21" x2="262.08" y2="94.04" fill="none" stroke="#231f20" stroke-dasharray="0 0 2.04 2.04" stroke-miterlimit="10"/>
        <line x1="262.08" y1="95.07" x2="262.08" y2="96.07" fill="none" stroke="#231f20" stroke-miterlimit="10"/>
      </g>
      <g>
        <line x1="480.3" y1="51.16" x2="480.3" y2="52.16" fill="none" stroke="#231f20" stroke-miterlimit="10"/>
        <line x1="480.3" y1="54.21" x2="480.3" y2="94.04" fill="none" stroke="#231f20" stroke-dasharray="0 0 2.04 2.04" stroke-miterlimit="10"/>
        <line x1="480.3" y1="95.07" x2="480.3" y2="96.07" fill="none" stroke="#231f20" stroke-miterlimit="10"/>
      </g>
      <g>
        <line x1="371.19" y1="51.16" x2="371.19" y2="52.16" fill="none" stroke="#231f20" stroke-miterlimit="10"/>
        <line x1="371.19" y1="54.21" x2="371.19" y2="94.04" fill="none" stroke="#231f20" stroke-dasharray="0 0 2.04 2.04" stroke-miterlimit="10"/>
        <line x1="371.19" y1="95.07" x2="371.19" y2="96.07" fill="none" stroke="#231f20" stroke-miterlimit="10"/>
      </g>
    </g>
  </g>
  <g>
    <path d="M69.59,12.5h-3.12v-1.13h7.6v1.13h-3.14v9.14h-1.34V12.5Z" fill="#231f20"/>
    <path d="M74.48,16.57c0-.87-.02-1.61-.06-2.3h1.17l.05,1.45h.06c.33-.99,1.14-1.61,2.04-1.61,.15,0,.26,.02,.38,.05v1.26c-.14-.03-.27-.05-.46-.05-.94,0-1.61,.72-1.8,1.72-.03,.18-.06,.4-.06,.62v3.93h-1.32v-5.07Z" fill="#231f20"/>
    <path d="M83.46,21.64l-.11-.93h-.05c-.41,.58-1.2,1.1-2.25,1.1-1.49,0-2.25-1.05-2.25-2.12,0-1.78,1.58-2.76,4.43-2.74v-.15c0-.61-.17-1.71-1.68-1.71-.69,0-1.4,.21-1.92,.55l-.3-.88c.61-.4,1.49-.65,2.42-.65,2.25,0,2.8,1.54,2.8,3.02v2.76c0,.64,.03,1.26,.12,1.77h-1.22Zm-.2-3.76c-1.46-.03-3.12,.23-3.12,1.66,0,.87,.58,1.28,1.26,1.28,.96,0,1.57-.61,1.78-1.23,.05-.14,.08-.29,.08-.43v-1.28Z" fill="#231f20"/>
    <path d="M93.09,10.83v8.91c0,.65,.02,1.4,.06,1.9h-1.2l-.06-1.28h-.03c-.41,.82-1.31,1.45-2.51,1.45-1.78,0-3.15-1.51-3.15-3.75-.02-2.45,1.51-3.96,3.3-3.96,1.13,0,1.89,.53,2.22,1.13h.03v-4.4h1.34Zm-1.34,6.44c0-.17-.02-.4-.06-.56-.2-.85-.93-1.55-1.93-1.55-1.39,0-2.21,1.22-2.21,2.85,0,1.49,.73,2.73,2.18,2.73,.9,0,1.72-.59,1.96-1.6,.05-.18,.06-.37,.06-.58v-1.28Z" fill="#231f20"/>
    <path d="M96.8,12.2c.02,.46-.32,.82-.85,.82-.47,0-.81-.37-.81-.82s.35-.84,.84-.84,.82,.37,.82,.84Zm-1.49,9.44v-7.37h1.34v7.37h-1.34Z" fill="#231f20"/>
    <path d="M100.49,12.15v2.12h1.92v1.02h-1.92v3.97c0,.91,.26,1.43,1,1.43,.35,0,.61-.05,.78-.09l.06,1.01c-.26,.11-.67,.18-1.19,.18-.62,0-1.13-.2-1.45-.56-.38-.4-.52-1.05-.52-1.92v-4.02h-1.14v-1.02h1.14v-1.77l1.31-.35Z" fill="#231f20"/>
    <path d="M105.4,12.2c.02,.46-.32,.82-.85,.82-.47,0-.81-.37-.81-.82s.35-.84,.84-.84,.82,.37,.82,.84Zm-1.49,9.44v-7.37h1.34v7.37h-1.34Z" fill="#231f20"/>
    <path d="M114.15,17.89c0,2.73-1.89,3.91-3.67,3.91-2,0-3.53-1.46-3.53-3.79,0-2.47,1.61-3.91,3.65-3.91s3.55,1.54,3.55,3.79Zm-5.85,.08c0,1.61,.93,2.83,2.24,2.83s2.24-1.2,2.24-2.86c0-1.25-.62-2.83-2.21-2.83s-2.27,1.46-2.27,2.86Z" fill="#231f20"/>
    <path d="M115.84,16.26c0-.76-.02-1.39-.06-2h1.19l.08,1.22h.03c.37-.7,1.22-1.39,2.44-1.39,1.02,0,2.6,.61,2.6,3.14v4.4h-1.34v-4.25c0-1.19-.44-2.18-1.71-2.18-.88,0-1.57,.62-1.8,1.37-.06,.17-.09,.4-.09,.62v4.43h-1.34v-5.38Z" fill="#231f20"/>
    <path d="M128.37,21.64l-.11-.93h-.05c-.41,.58-1.2,1.1-2.25,1.1-1.49,0-2.25-1.05-2.25-2.12,0-1.78,1.58-2.76,4.43-2.74v-.15c0-.61-.17-1.71-1.67-1.71-.69,0-1.4,.21-1.92,.55l-.3-.88c.61-.4,1.49-.65,2.42-.65,2.25,0,2.8,1.54,2.8,3.02v2.76c0,.64,.03,1.26,.12,1.77h-1.22Zm-.2-3.76c-1.46-.03-3.12,.23-3.12,1.66,0,.87,.58,1.28,1.26,1.28,.96,0,1.57-.61,1.78-1.23,.05-.14,.08-.29,.08-.43v-1.28Z" fill="#231f20"/>
    <path d="M131.62,10.83h1.34v10.81h-1.34V10.83Z" fill="#231f20"/>
    <path d="M140.15,18.41l-1.07,3.23h-1.37l3.49-10.26h1.6l3.5,10.26h-1.42l-1.1-3.23h-3.64Zm3.37-1.04l-1-2.95c-.23-.67-.38-1.28-.53-1.87h-.03c-.15,.61-.32,1.23-.52,1.86l-1,2.97h3.09Z" fill="#231f20"/>
    <path d="M152.84,21.36c-.35,.18-1.13,.43-2.12,.43-2.22,0-3.67-1.51-3.67-3.76s1.55-3.91,3.96-3.91c.79,0,1.49,.2,1.86,.38l-.3,1.04c-.32-.18-.82-.35-1.55-.35-1.69,0-2.6,1.25-2.6,2.79,0,1.71,1.1,2.76,2.56,2.76,.76,0,1.26-.2,1.65-.37l.23,1.01Z" fill="#231f20"/>
    <path d="M159.57,21.36c-.35,.18-1.13,.43-2.12,.43-2.22,0-3.67-1.51-3.67-3.76s1.55-3.91,3.96-3.91c.79,0,1.49,.2,1.86,.38l-.3,1.04c-.32-.18-.82-.35-1.55-.35-1.69,0-2.6,1.25-2.6,2.79,0,1.71,1.1,2.76,2.56,2.76,.76,0,1.26-.2,1.65-.37l.23,1.01Z" fill="#231f20"/>
    <path d="M161.79,18.2c.03,1.81,1.19,2.56,2.53,2.56,.96,0,1.54-.17,2.04-.38l.23,.96c-.47,.21-1.28,.46-2.45,.46-2.27,0-3.62-1.49-3.62-3.72s1.31-3.97,3.46-3.97c2.41,0,3.05,2.12,3.05,3.47,0,.27-.03,.49-.05,.62h-5.18Zm3.93-.96c.02-.85-.35-2.18-1.86-2.18-1.35,0-1.95,1.25-2.06,2.18h3.91Z" fill="#231f20"/>
    <path d="M168.49,20.27c.4,.26,1.1,.53,1.77,.53,.97,0,1.43-.49,1.43-1.1,0-.64-.38-.99-1.37-1.35-1.32-.47-1.95-1.2-1.95-2.09,0-1.19,.96-2.16,2.54-2.16,.75,0,1.4,.21,1.81,.46l-.34,.97c-.29-.18-.82-.43-1.51-.43-.79,0-1.23,.46-1.23,1,0,.61,.44,.88,1.4,1.25,1.28,.49,1.93,1.13,1.93,2.22,0,1.29-1.01,2.21-2.76,2.21-.81,0-1.55-.2-2.07-.5l.33-1.02Z" fill="#231f20"/>
    <path d="M174.52,20.27c.4,.26,1.1,.53,1.77,.53,.97,0,1.43-.49,1.43-1.1,0-.64-.38-.99-1.37-1.35-1.32-.47-1.95-1.2-1.95-2.09,0-1.19,.96-2.16,2.54-2.16,.75,0,1.4,.21,1.81,.46l-.34,.97c-.29-.18-.82-.43-1.51-.43-.79,0-1.23,.46-1.23,1,0,.61,.44,.88,1.4,1.25,1.28,.49,1.93,1.13,1.93,2.22,0,1.29-1.01,2.21-2.76,2.21-.81,0-1.55-.2-2.07-.5l.33-1.02Z" fill="#231f20"/>
    <path d="M190.13,19.63c0,.76,.02,1.43,.06,2.01h-1.19l-.08-1.2h-.03c-.35,.59-1.13,1.37-2.44,1.37-1.16,0-2.54-.64-2.54-3.23v-4.31h1.34v4.08c0,1.4,.43,2.34,1.64,2.34,.9,0,1.52-.62,1.77-1.22,.08-.2,.12-.44,.12-.69v-4.52h1.34v5.36Z" fill="#231f20"/>
    <path d="M192.16,20.27c.4,.26,1.1,.53,1.77,.53,.97,0,1.43-.49,1.43-1.1,0-.64-.38-.99-1.37-1.35-1.32-.47-1.95-1.2-1.95-2.09,0-1.19,.96-2.16,2.54-2.16,.75,0,1.4,.21,1.81,.46l-.34,.97c-.29-.18-.82-.43-1.51-.43-.79,0-1.23,.46-1.23,1,0,.61,.44,.88,1.4,1.25,1.28,.49,1.93,1.13,1.93,2.22,0,1.29-1.01,2.21-2.76,2.21-.81,0-1.55-.2-2.07-.5l.33-1.02Z" fill="#231f20"/>
    <path d="M199.12,18.2c.03,1.81,1.19,2.56,2.53,2.56,.96,0,1.54-.17,2.04-.38l.23,.96c-.47,.21-1.28,.46-2.45,.46-2.27,0-3.62-1.49-3.62-3.72s1.31-3.97,3.46-3.97c2.41,0,3.05,2.12,3.05,3.47,0,.27-.03,.49-.05,.62h-5.18Zm3.93-.96c.02-.85-.35-2.18-1.86-2.18-1.35,0-1.95,1.25-2.06,2.18h3.91Z" fill="#231f20"/>
    <path d="M205.82,20.27c.4,.26,1.1,.53,1.77,.53,.97,0,1.43-.49,1.43-1.1,0-.64-.38-.99-1.37-1.35-1.32-.47-1.95-1.2-1.95-2.09,0-1.19,.96-2.16,2.54-2.16,.75,0,1.4,.21,1.81,.46l-.34,.97c-.29-.18-.82-.43-1.51-.43-.79,0-1.23,.46-1.23,1,0,.61,.44,.88,1.4,1.25,1.28,.49,1.93,1.13,1.93,2.22,0,1.29-1.01,2.21-2.76,2.21-.81,0-1.55-.2-2.07-.5l.33-1.02Z" fill="#231f20"/>
    <path d="M221.93,17.89c0,2.73-1.89,3.91-3.67,3.91-2,0-3.53-1.46-3.53-3.79,0-2.47,1.61-3.91,3.65-3.91s3.55,1.54,3.55,3.79Zm-5.85,.08c0,1.61,.93,2.83,2.24,2.83s2.24-1.2,2.24-2.86c0-1.25-.62-2.83-2.21-2.83s-2.27,1.46-2.27,2.86Z" fill="#231f20"/>
    <path d="M223.62,16.26c0-.76-.02-1.39-.06-2h1.19l.08,1.22h.03c.37-.7,1.22-1.39,2.44-1.39,1.02,0,2.6,.61,2.6,3.14v4.4h-1.34v-4.25c0-1.19-.44-2.18-1.71-2.18-.88,0-1.57,.62-1.8,1.37-.06,.17-.09,.4-.09,.62v4.43h-1.34v-5.38Z" fill="#231f20"/>
    <path d="M232.82,18.2c.03,1.81,1.19,2.56,2.53,2.56,.96,0,1.54-.17,2.04-.38l.23,.96c-.47,.21-1.28,.46-2.45,.46-2.27,0-3.62-1.49-3.62-3.72s1.31-3.97,3.46-3.97c2.41,0,3.05,2.12,3.05,3.47,0,.27-.03,.49-.05,.62h-5.18Zm3.93-.96c.02-.85-.35-2.18-1.86-2.18-1.35,0-1.95,1.25-2.06,2.18h3.91Z" fill="#231f20"/>
    <path d="M248.18,21.36c-.35,.18-1.13,.43-2.12,.43-2.22,0-3.67-1.51-3.67-3.76s1.55-3.91,3.96-3.91c.79,0,1.49,.2,1.86,.38l-.3,1.04c-.32-.18-.82-.35-1.55-.35-1.69,0-2.6,1.25-2.6,2.79,0,1.71,1.1,2.76,2.56,2.76,.76,0,1.26-.2,1.65-.37l.23,1.01Z" fill="#231f20"/>
    <path d="M256.33,17.89c0,2.73-1.89,3.91-3.67,3.91-2,0-3.53-1.46-3.53-3.79,0-2.47,1.61-3.91,3.65-3.91s3.55,1.54,3.55,3.79Zm-5.85,.08c0,1.61,.93,2.83,2.24,2.83s2.24-1.2,2.24-2.86c0-1.25-.62-2.83-2.21-2.83s-2.27,1.46-2.27,2.86Z" fill="#231f20"/>
    <path d="M258.02,16.26c0-.76-.02-1.39-.06-2h1.19l.08,1.22h.03c.37-.7,1.22-1.39,2.44-1.39,1.02,0,2.6,.61,2.6,3.14v4.4h-1.34v-4.25c0-1.19-.44-2.18-1.71-2.18-.88,0-1.57,.62-1.8,1.37-.06,.17-.09,.4-.09,.62v4.43h-1.34v-5.38Z" fill="#231f20"/>
    <path d="M268.02,12.15v2.12h1.92v1.02h-1.92v3.97c0,.91,.26,1.43,1,1.43,.35,0,.61-.05,.78-.09l.06,1.01c-.26,.11-.67,.18-1.19,.18-.62,0-1.13-.2-1.45-.56-.38-.4-.52-1.05-.52-1.92v-4.02h-1.14v-1.02h1.14v-1.77l1.31-.35Z" fill="#231f20"/>
    <path d="M272.94,12.2c.01,.46-.32,.82-.85,.82-.47,0-.81-.37-.81-.82s.35-.84,.84-.84,.82,.37,.82,.84Zm-1.49,9.44v-7.37h1.34v7.37h-1.34Z" fill="#231f20"/>
    <path d="M275.01,16.26c0-.76-.01-1.39-.06-2h1.19l.08,1.22h.03c.37-.7,1.22-1.39,2.44-1.39,1.02,0,2.6,.61,2.6,3.14v4.4h-1.34v-4.25c0-1.19-.44-2.18-1.71-2.18-.88,0-1.57,.62-1.8,1.37-.06,.17-.09,.4-.09,.62v4.43h-1.34v-5.38Z" fill="#231f20"/>
    <path d="M289.63,19.63c0,.76,.01,1.43,.06,2.01h-1.19l-.08-1.2h-.03c-.35,.59-1.13,1.37-2.44,1.37-1.16,0-2.54-.64-2.54-3.23v-4.31h1.34v4.08c0,1.4,.43,2.34,1.64,2.34,.9,0,1.52-.62,1.77-1.22,.08-.2,.12-.44,.12-.69v-4.52h1.34v5.36Z" fill="#231f20"/>
    <path d="M298.52,17.89c0,2.73-1.89,3.91-3.67,3.91-1.99,0-3.53-1.46-3.53-3.79,0-2.47,1.61-3.91,3.65-3.91s3.55,1.54,3.55,3.79Zm-5.85,.08c0,1.61,.93,2.83,2.24,2.83s2.24-1.2,2.24-2.86c0-1.25-.62-2.83-2.21-2.83s-2.27,1.46-2.27,2.86Z" fill="#231f20"/>
    <path d="M306.38,19.63c0,.76,.01,1.43,.06,2.01h-1.19l-.08-1.2h-.03c-.35,.59-1.13,1.37-2.44,1.37-1.16,0-2.54-.64-2.54-3.23v-4.31h1.34v4.08c0,1.4,.43,2.34,1.64,2.34,.9,0,1.52-.62,1.77-1.22,.08-.2,.12-.44,.12-.69v-4.52h1.34v5.36Z" fill="#231f20"/>
    <path d="M308.42,20.27c.4,.26,1.1,.53,1.77,.53,.97,0,1.43-.49,1.43-1.1,0-.64-.38-.99-1.37-1.35-1.32-.47-1.95-1.2-1.95-2.09,0-1.19,.96-2.16,2.54-2.16,.75,0,1.4,.21,1.81,.46l-.33,.97c-.29-.18-.82-.43-1.51-.43-.79,0-1.23,.46-1.23,1,0,.61,.44,.88,1.4,1.25,1.28,.49,1.93,1.13,1.93,2.22,0,1.29-1,2.21-2.76,2.21-.81,0-1.55-.2-2.07-.5l.33-1.02Z" fill="#231f20"/>
    <path d="M317.86,16.57c0-.87-.01-1.61-.06-2.3h1.17l.04,1.45h.06c.33-.99,1.14-1.61,2.04-1.61,.15,0,.26,.02,.38,.05v1.26c-.14-.03-.27-.05-.46-.05-.94,0-1.61,.72-1.8,1.72-.03,.18-.06,.4-.06,.62v3.93h-1.33v-5.07Z" fill="#231f20"/>
    <path d="M323.43,18.2c.03,1.81,1.19,2.56,2.53,2.56,.96,0,1.54-.17,2.04-.38l.23,.96c-.47,.21-1.28,.46-2.45,.46-2.27,0-3.62-1.49-3.62-3.72s1.31-3.97,3.46-3.97c2.41,0,3.05,2.12,3.05,3.47,0,.27-.03,.49-.05,.62h-5.18Zm3.93-.96c.01-.85-.35-2.18-1.86-2.18-1.36,0-1.95,1.25-2.06,2.18h3.91Z" fill="#231f20"/>
    <path d="M334.39,21.64l-.11-.93h-.04c-.41,.58-1.2,1.1-2.25,1.1-1.49,0-2.25-1.05-2.25-2.12,0-1.78,1.58-2.76,4.43-2.74v-.15c0-.61-.17-1.71-1.68-1.71-.68,0-1.4,.21-1.92,.55l-.3-.88c.61-.4,1.49-.65,2.42-.65,2.25,0,2.8,1.54,2.8,3.02v2.76c0,.64,.03,1.26,.12,1.77h-1.22Zm-.2-3.76c-1.46-.03-3.12,.23-3.12,1.66,0,.87,.58,1.28,1.26,1.28,.96,0,1.57-.61,1.78-1.23,.05-.14,.08-.29,.08-.43v-1.28Z" fill="#231f20"/>
    <path d="M344.02,10.83v8.91c0,.65,.01,1.4,.06,1.9h-1.2l-.06-1.28h-.03c-.41,.82-1.31,1.45-2.51,1.45-1.78,0-3.15-1.51-3.15-3.75-.02-2.45,1.51-3.96,3.3-3.96,1.13,0,1.89,.53,2.22,1.13h.03v-4.4h1.34Zm-1.34,6.44c0-.17-.01-.4-.06-.56-.2-.85-.93-1.55-1.93-1.55-1.39,0-2.21,1.22-2.21,2.85,0,1.49,.73,2.73,2.18,2.73,.9,0,1.72-.59,1.96-1.6,.05-.18,.06-.37,.06-.58v-1.28Z" fill="#231f20"/>
  </g>
  <g>
    <path d="M239.26,54.4c.34-.07,.87-.12,1.41-.12,.77,0,1.27,.13,1.64,.44,.31,.23,.5,.59,.5,1.06,0,.58-.38,1.08-1.01,1.31v.02c.57,.14,1.23,.61,1.23,1.5,0,.52-.2,.91-.51,1.2-.42,.38-1.09,.56-2.07,.56-.53,0-.94-.04-1.2-.07v-5.89Zm.77,2.45h.7c.82,0,1.3-.43,1.3-1,0-.7-.53-.98-1.31-.98-.35,0-.56,.03-.68,.05v1.93Zm0,2.87c.15,.03,.37,.04,.65,.04,.8,0,1.54-.29,1.54-1.16,0-.82-.7-1.15-1.55-1.15h-.64v2.28Z" fill="#231f20" stroke="#fff" stroke-width=".1"/>
    <path d="M244.05,54h.78v6.31h-.78v-6.31Z" fill="#231f20" stroke="#fff" stroke-width=".1"/>
    <path d="M250.03,58.12c0,1.59-1.1,2.28-2.14,2.28-1.16,0-2.06-.85-2.06-2.21,0-1.44,.94-2.28,2.13-2.28s2.07,.9,2.07,2.21Zm-3.41,.04c0,.94,.54,1.65,1.31,1.65s1.31-.7,1.31-1.67c0-.73-.36-1.65-1.29-1.65s-1.32,.85-1.32,1.67Z" fill="#231f20" stroke="#fff" stroke-width=".1"/>
    <path d="M254.08,60.15c-.2,.11-.66,.25-1.23,.25-1.3,0-2.14-.88-2.14-2.19s.91-2.28,2.31-2.28c.46,0,.87,.12,1.08,.22l-.18,.6c-.19-.11-.48-.2-.91-.2-.99,0-1.52,.73-1.52,1.63,0,.99,.64,1.61,1.49,1.61,.44,0,.74-.12,.96-.21l.13,.59Z" fill="#231f20" stroke="#fff" stroke-width=".1"/>
    <path d="M255.77,57.98h.02c.11-.15,.26-.34,.38-.49l1.26-1.48h.94l-1.66,1.77,1.89,2.53h-.95l-1.48-2.06-.4,.44v1.62h-.77v-6.31h.77v3.98Z" fill="#231f20" stroke="#fff" stroke-width=".1"/>
    <path d="M224.92,65.06c.34-.07,.87-.12,1.41-.12,.77,0,1.27,.13,1.64,.44,.31,.23,.5,.59,.5,1.06,0,.58-.38,1.08-1.01,1.31v.02c.57,.14,1.23,.61,1.23,1.5,0,.52-.2,.91-.51,1.2-.42,.38-1.09,.56-2.07,.56-.53,0-.94-.04-1.2-.07v-5.89Zm.77,2.45h.7c.82,0,1.3-.43,1.3-1,0-.7-.53-.98-1.31-.98-.36,0-.56,.03-.68,.05v1.93Zm0,2.87c.15,.03,.37,.04,.65,.04,.8,0,1.54-.29,1.54-1.16,0-.82-.7-1.15-1.55-1.15h-.64v2.28Z" fill="#231f20" stroke="#fff" stroke-width=".1"/>
    <path d="M233.64,68.78c0,1.59-1.1,2.28-2.14,2.28-1.16,0-2.06-.85-2.06-2.21,0-1.44,.94-2.28,2.13-2.28s2.07,.9,2.07,2.21Zm-3.41,.04c0,.94,.54,1.65,1.31,1.65s1.31-.7,1.31-1.67c0-.73-.36-1.65-1.29-1.65s-1.32,.85-1.32,1.67Z" fill="#231f20" stroke="#fff" stroke-width=".1"/>
    <path d="M238.22,69.79c0,.44,0,.83,.04,1.17h-.69l-.04-.7h-.02c-.2,.35-.66,.8-1.42,.8-.67,0-1.48-.37-1.48-1.88v-2.51h.78v2.38c0,.82,.25,1.37,.96,1.37,.52,0,.89-.36,1.03-.71,.04-.12,.07-.26,.07-.4v-2.64h.78v3.13Z" fill="#231f20" stroke="#fff" stroke-width=".1"/>
    <path d="M239.52,67.83c0-.44,0-.81-.04-1.16h.69l.04,.71h.02c.21-.41,.71-.81,1.42-.81,.59,0,1.52,.36,1.52,1.83v2.57h-.78v-2.48c0-.69-.26-1.27-.99-1.27-.51,0-.91,.36-1.05,.8-.04,.1-.05,.23-.05,.36v2.58h-.78v-3.13Z" fill="#231f20" stroke="#fff" stroke-width=".1"/>
    <path d="M248.16,64.66v5.2c0,.38,0,.82,.04,1.11h-.7l-.04-.75h-.02c-.24,.48-.76,.84-1.47,.84-1.04,0-1.84-.88-1.84-2.18,0-1.43,.88-2.31,1.93-2.31,.66,0,1.1,.31,1.3,.66h.02v-2.57h.78Zm-.78,3.76c0-.1,0-.23-.04-.33-.12-.5-.54-.91-1.13-.91-.81,0-1.29,.71-1.29,1.66,0,.87,.43,1.59,1.27,1.59,.52,0,1-.35,1.15-.93,.03-.11,.04-.21,.04-.34v-.75Z" fill="#231f20" stroke="#fff" stroke-width=".1"/>
    <path d="M251.84,70.96l-.06-.54h-.03c-.24,.34-.7,.64-1.31,.64-.87,0-1.31-.61-1.31-1.23,0-1.04,.92-1.61,2.58-1.6v-.09c0-.35-.1-.99-.98-.99-.4,0-.82,.12-1.12,.32l-.18-.52c.36-.23,.87-.38,1.41-.38,1.31,0,1.63,.9,1.63,1.76v1.61c0,.37,.02,.74,.07,1.03h-.71Zm-.12-2.19c-.85-.02-1.82,.13-1.82,.97,0,.51,.34,.75,.74,.75,.56,0,.91-.36,1.04-.72,.03-.08,.04-.17,.04-.25v-.75Z" fill="#231f20" stroke="#fff" stroke-width=".1"/>
    <path d="M253.74,68.01c0-.51,0-.94-.04-1.34h.68l.03,.84h.04c.2-.58,.67-.94,1.19-.94,.09,0,.15,0,.22,.03v.74c-.08-.02-.16-.03-.27-.03-.55,0-.94,.42-1.05,1-.02,.11-.04,.23-.04,.36v2.29h-.77v-2.96Z" fill="#231f20" stroke="#fff" stroke-width=".1"/>
    <path d="M257.15,66.67l.94,2.54c.1,.28,.2,.62,.27,.88h.02c.08-.26,.17-.59,.28-.9l.85-2.52h.83l-1.17,3.06c-.56,1.47-.94,2.23-1.47,2.69-.38,.34-.76,.47-.96,.51l-.2-.66c.2-.06,.45-.19,.68-.38,.21-.17,.48-.47,.66-.87,.04-.08,.06-.14,.06-.19s-.02-.11-.05-.2l-1.59-3.96h.85Z" fill="#231f20" stroke="#fff" stroke-width=".1"/>
  </g>
  <g>
    <path d="M21.25,59.77c-.28,.14-.85,.28-1.58,.28-1.69,0-2.96-1.07-2.96-3.03s1.27-3.14,3.13-3.14c.75,0,1.22,.16,1.42,.27l-.19,.63c-.29-.14-.71-.25-1.21-.25-1.4,0-2.34,.9-2.34,2.47,0,1.47,.84,2.41,2.3,2.41,.47,0,.95-.1,1.26-.25l.16,.61Z" fill="#231f20"/>
    <path d="M25.99,57.78c0,1.59-1.1,2.28-2.14,2.28-1.16,0-2.06-.85-2.06-2.21,0-1.44,.94-2.28,2.13-2.28s2.07,.9,2.07,2.21Zm-3.41,.04c0,.94,.54,1.65,1.31,1.65s1.31-.7,1.31-1.67c0-.73-.36-1.65-1.29-1.65s-1.32,.85-1.32,1.67Z" fill="#231f20"/>
    <path d="M26.97,56.83c0-.44,0-.81-.04-1.16h.68l.04,.69h.03c.24-.41,.64-.79,1.35-.79,.59,0,1.03,.36,1.22,.86h.02c.13-.24,.3-.43,.48-.56,.26-.2,.54-.3,.95-.3,.57,0,1.41,.37,1.41,1.87v2.53h-.76v-2.43c0-.83-.3-1.32-.93-1.32-.44,0-.79,.33-.92,.71-.04,.11-.06,.25-.06,.39v2.66h-.76v-2.58c0-.68-.3-1.18-.9-1.18-.49,0-.84,.39-.97,.78-.04,.12-.06,.25-.06,.38v2.59h-.76v-3.13Z" fill="#231f20"/>
    <path d="M34.38,57.07c0-.55-.02-.99-.04-1.4h.7l.04,.74h.02c.32-.52,.83-.83,1.53-.83,1.04,0,1.82,.88,1.82,2.18,0,1.55-.94,2.31-1.95,2.31-.57,0-1.07-.25-1.32-.67h-.02v2.34h-.77v-4.65Zm.77,1.15c0,.12,.02,.22,.04,.32,.14,.54,.61,.91,1.17,.91,.83,0,1.31-.67,1.31-1.66,0-.86-.45-1.6-1.28-1.6-.53,0-1.03,.38-1.18,.97-.03,.1-.05,.21-.05,.32v.74Z" fill="#231f20"/>
    <path d="M39.43,57.01c0-.51,0-.94-.04-1.34h.68l.03,.84h.04c.2-.58,.67-.94,1.19-.94,.09,0,.15,0,.22,.03v.74c-.08-.02-.16-.03-.27-.03-.55,0-.94,.42-1.05,1-.02,.11-.04,.23-.04,.36v2.29h-.77v-2.96Z" fill="#231f20"/>
    <path d="M42.68,57.96c.02,1.06,.69,1.49,1.47,1.49,.56,0,.9-.1,1.19-.22l.13,.56c-.28,.12-.75,.27-1.43,.27-1.32,0-2.11-.87-2.11-2.17s.76-2.32,2.02-2.32c1.4,0,1.78,1.23,1.78,2.02,0,.16-.02,.28-.03,.36h-3.02Zm2.29-.56c0-.5-.2-1.27-1.08-1.27-.79,0-1.14,.73-1.2,1.27h2.28Z" fill="#231f20"/>
    <path d="M46.59,59.17c.23,.15,.64,.31,1.03,.31,.57,0,.83-.28,.83-.64,0-.37-.22-.58-.8-.79-.77-.27-1.14-.7-1.14-1.22,0-.69,.56-1.26,1.48-1.26,.44,0,.82,.12,1.06,.27l-.2,.57c-.17-.11-.48-.25-.88-.25-.46,0-.72,.27-.72,.59,0,.35,.26,.52,.82,.73,.75,.28,1.13,.66,1.13,1.3,0,.75-.59,1.29-1.61,1.29-.47,0-.91-.12-1.21-.29l.2-.6Z" fill="#231f20"/>
    <path d="M50.11,59.17c.23,.15,.64,.31,1.03,.31,.57,0,.83-.28,.83-.64,0-.37-.22-.58-.8-.79-.77-.27-1.14-.7-1.14-1.22,0-.69,.56-1.26,1.48-1.26,.44,0,.82,.12,1.06,.27l-.2,.57c-.17-.11-.48-.25-.88-.25-.46,0-.72,.27-.72,.59,0,.35,.26,.52,.82,.73,.75,.28,1.13,.66,1.13,1.3,0,.75-.59,1.29-1.61,1.29-.47,0-.91-.12-1.21-.29l.2-.6Z" fill="#231f20"/>
    <path d="M54.17,57.96c.02,1.06,.69,1.49,1.47,1.49,.56,0,.9-.1,1.19-.22l.13,.56c-.28,.12-.75,.27-1.43,.27-1.32,0-2.11-.87-2.11-2.17s.76-2.32,2.02-2.32c1.4,0,1.78,1.23,1.78,2.02,0,.16-.02,.28-.03,.36h-3.02Zm2.29-.56c0-.5-.2-1.27-1.08-1.27-.79,0-1.14,.73-1.2,1.27h2.28Z" fill="#231f20"/>
    <path d="M61.9,53.66v5.2c0,.38,0,.82,.04,1.11h-.7l-.04-.75h-.02c-.24,.48-.76,.84-1.47,.84-1.04,0-1.84-.88-1.84-2.18,0-1.43,.88-2.31,1.93-2.31,.66,0,1.1,.31,1.3,.66h.02v-2.57h.78Zm-.78,3.76c0-.1,0-.23-.04-.33-.12-.5-.54-.91-1.13-.91-.81,0-1.29,.71-1.29,1.66,0,.87,.43,1.59,1.27,1.59,.52,0,1-.35,1.15-.93,.03-.11,.04-.21,.04-.34v-.75Z" fill="#231f20"/>
    <path d="M45.84,64.72c.47-.07,1.03-.12,1.64-.12,1.11,0,1.9,.26,2.42,.75,.53,.49,.84,1.18,.84,2.15s-.3,1.78-.86,2.33c-.56,.56-1.48,.86-2.65,.86-.55,0-1.01-.03-1.4-.07v-5.89Zm.77,5.29c.2,.04,.48,.04,.78,.04,1.65,0,2.55-.92,2.55-2.54,0-1.41-.79-2.31-2.42-2.31-.4,0-.7,.04-.91,.08v4.72Z" fill="#231f20"/>
    <path d="M54.11,70.63l-.06-.54h-.03c-.24,.34-.7,.64-1.31,.64-.87,0-1.31-.61-1.31-1.23,0-1.04,.92-1.61,2.58-1.6v-.09c0-.35-.1-.99-.98-.99-.4,0-.82,.12-1.12,.32l-.18-.52c.36-.23,.87-.38,1.41-.38,1.31,0,1.63,.9,1.63,1.76v1.61c0,.37,.02,.74,.07,1.03h-.71Zm-.12-2.19c-.85-.02-1.82,.13-1.82,.97,0,.51,.34,.75,.74,.75,.56,0,.91-.36,1.04-.72,.03-.08,.04-.17,.04-.25v-.75Z" fill="#231f20"/>
    <path d="M56.91,65.1v1.23h1.12v.6h-1.12v2.32c0,.53,.15,.83,.59,.83,.2,0,.35-.03,.45-.05l.04,.59c-.15,.06-.39,.11-.69,.11-.36,0-.66-.12-.84-.33-.22-.23-.3-.61-.3-1.12v-2.34h-.67v-.6h.67v-1.03l.76-.2Z" fill="#231f20"/>
    <path d="M61.29,70.63l-.06-.54h-.03c-.24,.34-.7,.64-1.31,.64-.87,0-1.31-.61-1.31-1.23,0-1.04,.92-1.61,2.58-1.6v-.09c0-.35-.1-.99-.98-.99-.4,0-.82,.12-1.12,.32l-.18-.52c.36-.23,.87-.38,1.41-.38,1.31,0,1.63,.9,1.63,1.76v1.61c0,.37,.02,.74,.07,1.03h-.71Zm-.12-2.19c-.85-.02-1.82,.13-1.82,.97,0,.51,.34,.75,.74,.75,.56,0,.91-.36,1.04-.72,.03-.08,.04-.17,.04-.25v-.75Z" fill="#231f20"/>
  </g>
  <g>
    <line x1="63.96" y1="36.82" x2="560.22" y2="36.82" fill="none" stroke="#231f20" stroke-miterlimit="10"/>
    <path d="M566.26,36.82c-2.84,1.05-6.36,2.85-8.55,4.76l1.72-4.76-1.72-4.75c2.18,1.9,5.71,3.7,8.55,4.75Z" fill="#231f20"/>
  </g>
  <g>
    <rect x="64.98" y="187.32" width="502.56" height="45.23" fill="none" stroke="#231f20" stroke-miterlimit="10"/>
    <g>
      <g>
        <line x1="152.6" y1="187.48" x2="152.6" y2="188.48" fill="none" stroke="#231f20" stroke-miterlimit="10"/>
        <line x1="152.6" y1="190.52" x2="152.6" y2="230.36" fill="none" stroke="#231f20" stroke-dasharray="0 0 2.04 2.04" stroke-miterlimit="10"/>
        <line x1="152.6" y1="231.38" x2="152.6" y2="232.38" fill="none" stroke="#231f20" stroke-miterlimit="10"/>
      </g>
      <g>
        <line x1="261.71" y1="187.48" x2="261.71" y2="188.48" fill="none" stroke="#231f20" stroke-miterlimit="10"/>
        <line x1="261.71" y1="190.52" x2="261.71" y2="230.36" fill="none" stroke="#231f20" stroke-dasharray="0 0 2.04 2.04" stroke-miterlimit="10"/>
        <line x1="261.71" y1="231.38" x2="261.71" y2="232.38" fill="none" stroke="#231f20" stroke-miterlimit="10"/>
      </g>
      <g>
        <line x1="479.93" y1="187.48" x2="479.93" y2="188.48" fill="none" stroke="#231f20" stroke-miterlimit="10"/>
        <line x1="479.93" y1="190.52" x2="479.93" y2="230.36" fill="none" stroke="#231f20" stroke-dasharray="0 0 2.04 2.04" stroke-miterlimit="10"/>
        <line x1="479.93" y1="231.38" x2="479.93" y2="232.38" fill="none" stroke="#231f20" stroke-miterlimit="10"/>
      </g>
      <g>
        <line x1="370.82" y1="187.48" x2="370.82" y2="188.48" fill="none" stroke="#231f20" stroke-miterlimit="10"/>
        <line x1="370.82" y1="190.52" x2="370.82" y2="230.36" fill="none" stroke="#231f20" stroke-dasharray="0 0 2.04 2.04" stroke-miterlimit="10"/>
        <line x1="370.82" y1="231.38" x2="370.82" y2="232.38" fill="none" stroke="#231f20" stroke-miterlimit="10"/>
      </g>
    </g>
  </g>
  <g>
    <path d="M66.57,157.18l5.7-8.33v-.05h-5.21v-1.11h6.93v.81l-5.67,8.3v.05h5.74v1.11h-7.49v-.78Z" fill="#231f20"/>
    <path d="M75.69,147.83c.67-.14,1.63-.21,2.54-.21,1.42,0,2.33,.26,2.97,.84,.52,.46,.81,1.16,.81,1.95,0,1.36-.85,2.25-1.93,2.62v.05c.79,.27,1.26,1,1.51,2.07,.33,1.43,.58,2.42,.79,2.82h-1.37c-.17-.29-.4-1.17-.69-2.45-.3-1.42-.85-1.95-2.06-2h-1.25v4.45h-1.33v-10.13Zm1.33,4.68h1.35c1.42,0,2.31-.78,2.31-1.95,0-1.32-.96-1.9-2.36-1.92-.64,0-1.1,.06-1.31,.12v3.75Z" fill="#231f20"/>
    <path d="M85.62,154.73l-1.07,3.23h-1.37l3.49-10.26h1.6l3.5,10.26h-1.42l-1.1-3.23h-3.64Zm3.37-1.04l-1-2.95c-.23-.67-.38-1.28-.53-1.87h-.03c-.15,.61-.32,1.23-.52,1.86l-1,2.97h3.09Z" fill="#231f20"/>
    <path d="M93.28,157.96v-10.26h1.45l3.29,5.19c.76,1.2,1.35,2.28,1.84,3.33l.03-.02c-.12-1.37-.15-2.62-.15-4.22v-4.29h1.25v10.26h-1.34l-3.26-5.21c-.72-1.14-1.4-2.31-1.92-3.43l-.05,.02c.08,1.29,.11,2.53,.11,4.23v4.39h-1.25Z" fill="#231f20"/>
    <path d="M111.73,157.68c-.35,.18-1.13,.43-2.12,.43-2.22,0-3.67-1.51-3.67-3.76s1.55-3.91,3.96-3.91c.79,0,1.49,.2,1.86,.38l-.3,1.04c-.32-.18-.82-.35-1.55-.35-1.69,0-2.6,1.25-2.6,2.79,0,1.71,1.1,2.76,2.56,2.76,.76,0,1.26-.2,1.65-.37l.23,1.01Z" fill="#231f20"/>
    <path d="M117.38,157.96l-.11-.93h-.05c-.41,.58-1.2,1.1-2.25,1.1-1.49,0-2.25-1.05-2.25-2.12,0-1.78,1.58-2.76,4.43-2.74v-.15c0-.61-.17-1.71-1.68-1.71-.69,0-1.4,.21-1.92,.55l-.3-.88c.61-.4,1.49-.65,2.42-.65,2.25,0,2.8,1.54,2.8,3.02v2.76c0,.64,.03,1.26,.12,1.77h-1.22Zm-.2-3.76c-1.46-.03-3.12,.23-3.12,1.66,0,.87,.58,1.28,1.26,1.28,.96,0,1.57-.61,1.78-1.23,.05-.14,.08-.29,.08-.43v-1.28Z" fill="#231f20"/>
    <path d="M120.64,152.58c0-.76-.02-1.39-.06-2h1.19l.08,1.22h.03c.37-.7,1.22-1.39,2.44-1.39,1.02,0,2.6,.61,2.6,3.14v4.4h-1.34v-4.25c0-1.19-.44-2.18-1.71-2.18-.88,0-1.57,.62-1.8,1.37-.06,.17-.09,.4-.09,.62v4.43h-1.34v-5.38Z" fill="#231f20"/>
    <path d="M132.14,156.58c.4,.26,1.1,.53,1.77,.53,.97,0,1.43-.49,1.43-1.1,0-.64-.38-.99-1.37-1.35-1.32-.47-1.95-1.2-1.95-2.09,0-1.19,.96-2.16,2.54-2.16,.75,0,1.4,.21,1.81,.46l-.34,.97c-.29-.18-.82-.43-1.51-.43-.79,0-1.23,.46-1.23,1,0,.61,.44,.88,1.4,1.25,1.28,.49,1.93,1.13,1.93,2.22,0,1.29-1.01,2.21-2.76,2.21-.81,0-1.55-.2-2.07-.5l.33-1.02Z" fill="#231f20"/>
    <path d="M139.96,148.47v2.12h1.92v1.02h-1.92v3.97c0,.91,.26,1.43,1,1.43,.35,0,.61-.05,.78-.09l.06,1.01c-.26,.11-.67,.18-1.19,.18-.62,0-1.13-.2-1.45-.56-.38-.4-.52-1.05-.52-1.92v-4.02h-1.14v-1.02h1.14v-1.77l1.31-.35Z" fill="#231f20"/>
    <path d="M147.47,157.96l-.11-.93h-.05c-.41,.58-1.2,1.1-2.25,1.1-1.49,0-2.25-1.05-2.25-2.12,0-1.78,1.58-2.76,4.43-2.74v-.15c0-.61-.17-1.71-1.68-1.71-.69,0-1.4,.21-1.92,.55l-.3-.88c.61-.4,1.49-.65,2.42-.65,2.25,0,2.8,1.54,2.8,3.02v2.76c0,.64,.03,1.26,.12,1.77h-1.22Zm-.2-3.76c-1.46-.03-3.12,.23-3.12,1.66,0,.87,.58,1.28,1.26,1.28,.96,0,1.57-.61,1.78-1.23,.05-.14,.08-.29,.08-.43v-1.28Z" fill="#231f20"/>
    <path d="M150.73,152.88c0-.87-.02-1.61-.06-2.3h1.17l.05,1.45h.06c.33-.99,1.14-1.61,2.04-1.61,.15,0,.26,.02,.38,.05v1.26c-.14-.03-.27-.05-.46-.05-.94,0-1.61,.72-1.8,1.72-.03,.18-.06,.4-.06,.62v3.93h-1.32v-5.07Z" fill="#231f20"/>
    <path d="M157.69,148.47v2.12h1.92v1.02h-1.92v3.97c0,.91,.26,1.43,1,1.43,.35,0,.61-.05,.78-.09l.06,1.01c-.26,.11-.67,.18-1.19,.18-.62,0-1.13-.2-1.45-.56-.38-.4-.52-1.05-.52-1.92v-4.02h-1.14v-1.02h1.14v-1.77l1.31-.35Z" fill="#231f20"/>
    <path d="M159.99,158.56l4.25-11.04h1.04l-4.26,11.04h-1.02Z" fill="#231f20"/>
    <path d="M166.15,156.58c.4,.26,1.1,.53,1.77,.53,.97,0,1.43-.49,1.43-1.1,0-.64-.38-.99-1.37-1.35-1.32-.47-1.95-1.2-1.95-2.09,0-1.19,.96-2.16,2.54-2.16,.75,0,1.4,.21,1.81,.46l-.34,.97c-.29-.18-.82-.43-1.51-.43-.79,0-1.23,.46-1.23,1,0,.61,.44,.88,1.4,1.25,1.28,.49,1.93,1.13,1.93,2.22,0,1.29-1.01,2.21-2.76,2.21-.81,0-1.55-.2-2.07-.5l.33-1.02Z" fill="#231f20"/>
    <path d="M173.98,148.47v2.12h1.92v1.02h-1.92v3.97c0,.91,.26,1.43,1,1.43,.35,0,.61-.05,.78-.09l.06,1.01c-.26,.11-.67,.18-1.19,.18-.62,0-1.13-.2-1.45-.56-.38-.4-.52-1.05-.52-1.92v-4.02h-1.14v-1.02h1.14v-1.77l1.31-.35Z" fill="#231f20"/>
    <path d="M183.98,154.21c0,2.73-1.89,3.91-3.67,3.91-2,0-3.53-1.46-3.53-3.79,0-2.47,1.61-3.91,3.65-3.91s3.55,1.54,3.55,3.79Zm-5.85,.08c0,1.61,.93,2.83,2.24,2.83s2.24-1.2,2.24-2.86c0-1.25-.62-2.83-2.21-2.83s-2.27,1.46-2.27,2.86Z" fill="#231f20"/>
    <path d="M185.67,152.99c0-.94-.03-1.71-.06-2.41h1.2l.06,1.26h.03c.55-.9,1.42-1.43,2.62-1.43,1.78,0,3.12,1.51,3.12,3.75,0,2.65-1.61,3.96-3.35,3.96-.97,0-1.83-.43-2.27-1.16h-.03v4h-1.32v-7.98Zm1.32,1.96c0,.2,.03,.38,.06,.55,.24,.93,1.05,1.57,2.01,1.57,1.42,0,2.24-1.16,2.24-2.85,0-1.48-.78-2.74-2.19-2.74-.91,0-1.77,.65-2.03,1.66-.05,.17-.09,.37-.09,.55v1.26Z" fill="#231f20"/>
    <path d="M197.56,152.88c0-.87-.02-1.61-.06-2.3h1.17l.05,1.45h.06c.33-.99,1.14-1.61,2.04-1.61,.15,0,.26,.02,.38,.05v1.26c-.14-.03-.27-.05-.46-.05-.94,0-1.61,.72-1.8,1.72-.03,.18-.06,.4-.06,.62v3.93h-1.32v-5.07Z" fill="#231f20"/>
    <path d="M203.14,154.51c.03,1.81,1.19,2.56,2.53,2.56,.96,0,1.54-.17,2.04-.38l.23,.96c-.47,.21-1.28,.46-2.45,.46-2.27,0-3.62-1.49-3.62-3.72s1.31-3.97,3.46-3.97c2.41,0,3.05,2.12,3.05,3.47,0,.27-.03,.49-.05,.62h-5.18Zm3.93-.96c.02-.85-.35-2.18-1.86-2.18-1.35,0-1.95,1.25-2.06,2.18h3.91Z" fill="#231f20"/>
    <path d="M214.1,157.96l-.11-.93h-.05c-.41,.58-1.2,1.1-2.25,1.1-1.49,0-2.25-1.05-2.25-2.12,0-1.78,1.58-2.76,4.43-2.74v-.15c0-.61-.17-1.71-1.67-1.71-.69,0-1.4,.21-1.92,.55l-.3-.88c.61-.4,1.49-.65,2.42-.65,2.25,0,2.8,1.54,2.8,3.02v2.76c0,.64,.03,1.26,.12,1.77h-1.22Zm-.2-3.76c-1.46-.03-3.12,.23-3.12,1.66,0,.87,.58,1.28,1.26,1.28,.96,0,1.57-.61,1.78-1.23,.05-.14,.08-.29,.08-.43v-1.28Z" fill="#231f20"/>
    <path d="M223.72,147.14v8.91c0,.65,.02,1.4,.06,1.9h-1.2l-.06-1.28h-.03c-.41,.82-1.31,1.45-2.51,1.45-1.78,0-3.15-1.51-3.15-3.75-.02-2.45,1.51-3.96,3.3-3.96,1.13,0,1.89,.53,2.22,1.13h.03v-4.4h1.34Zm-1.34,6.44c0-.17-.02-.4-.06-.56-.2-.85-.93-1.55-1.93-1.55-1.39,0-2.21,1.22-2.21,2.85,0,1.49,.73,2.73,2.18,2.73,.9,0,1.72-.59,1.96-1.6,.05-.18,.06-.37,.06-.58v-1.28Z" fill="#231f20"/>
    <path d="M233.26,157.96l-.11-.93h-.05c-.41,.58-1.2,1.1-2.25,1.1-1.49,0-2.25-1.05-2.25-2.12,0-1.78,1.58-2.76,4.43-2.74v-.15c0-.61-.17-1.71-1.68-1.71-.69,0-1.4,.21-1.92,.55l-.3-.88c.61-.4,1.49-.65,2.42-.65,2.25,0,2.8,1.54,2.8,3.02v2.76c0,.64,.03,1.26,.12,1.77h-1.22Zm-.2-3.76c-1.46-.03-3.12,.23-3.12,1.66,0,.87,.58,1.28,1.26,1.28,.96,0,1.57-.61,1.78-1.23,.05-.14,.08-.29,.08-.43v-1.28Z" fill="#231f20"/>
    <path d="M238.07,148.47v2.12h1.92v1.02h-1.92v3.97c0,.91,.26,1.43,1,1.43,.35,0,.61-.05,.78-.09l.06,1.01c-.26,.11-.67,.18-1.19,.18-.62,0-1.13-.2-1.45-.56-.38-.4-.52-1.05-.52-1.92v-4.02h-1.14v-1.02h1.14v-1.77l1.31-.35Z" fill="#231f20"/>
    <path d="M244.66,157.96c.03-.5,.06-1.25,.06-1.9v-8.91h1.32v4.63h.03c.47-.82,1.33-1.36,2.51-1.36,1.83,0,3.12,1.52,3.11,3.76,0,2.63-1.66,3.94-3.3,3.94-1.07,0-1.92-.41-2.47-1.39h-.05l-.06,1.22h-1.16Zm1.39-2.95c0,.17,.03,.33,.06,.49,.26,.93,1.04,1.57,2.01,1.57,1.4,0,2.24-1.14,2.24-2.83,0-1.48-.76-2.74-2.19-2.74-.91,0-1.77,.62-2.04,1.65-.03,.15-.08,.33-.08,.55v1.33Z" fill="#231f20"/>
    <path d="M253.38,147.14h1.34v10.81h-1.34v-10.81Z" fill="#231f20"/>
    <path d="M263.65,154.21c0,2.73-1.89,3.91-3.67,3.91-2,0-3.53-1.46-3.53-3.79,0-2.47,1.61-3.91,3.65-3.91s3.55,1.54,3.55,3.79Zm-5.85,.08c0,1.61,.93,2.83,2.24,2.83s2.24-1.2,2.24-2.86c0-1.25-.62-2.83-2.21-2.83s-2.27,1.46-2.27,2.86Z" fill="#231f20"/>
    <path d="M270.59,157.68c-.35,.18-1.13,.43-2.12,.43-2.22,0-3.67-1.51-3.67-3.76s1.55-3.91,3.96-3.91c.79,0,1.49,.2,1.86,.38l-.3,1.04c-.32-.18-.82-.35-1.55-.35-1.69,0-2.6,1.25-2.6,2.79,0,1.71,1.1,2.76,2.56,2.76,.76,0,1.26-.2,1.64-.37l.23,1.01Z" fill="#231f20"/>
    <path d="M273.48,153.97h.03c.18-.26,.44-.58,.66-.84l2.16-2.54h1.61l-2.85,3.03,3.24,4.34h-1.63l-2.54-3.53-.69,.76v2.77h-1.33v-10.81h1.33v6.82Z" fill="#231f20"/>
    <path d="M282.47,157.96c.03-.5,.06-1.25,.06-1.9v-8.91h1.33v4.63h.03c.47-.82,1.33-1.36,2.51-1.36,1.83,0,3.12,1.52,3.11,3.76,0,2.63-1.66,3.94-3.3,3.94-1.07,0-1.92-.41-2.47-1.39h-.05l-.06,1.22h-1.16Zm1.39-2.95c0,.17,.03,.33,.06,.49,.26,.93,1.04,1.57,2.01,1.57,1.4,0,2.24-1.14,2.24-2.83,0-1.48-.76-2.74-2.19-2.74-.91,0-1.77,.62-2.04,1.65-.03,.15-.08,.33-.08,.55v1.33Z" fill="#231f20"/>
    <path d="M297.86,154.21c0,2.73-1.89,3.91-3.67,3.91-1.99,0-3.53-1.46-3.53-3.79,0-2.47,1.61-3.91,3.65-3.91s3.55,1.54,3.55,3.79Zm-5.85,.08c0,1.61,.93,2.83,2.24,2.83s2.24-1.2,2.24-2.86c0-1.25-.62-2.83-2.21-2.83s-2.27,1.46-2.27,2.86Z" fill="#231f20"/>
    <path d="M305.72,155.94c0,.76,.01,1.43,.06,2.01h-1.19l-.08-1.2h-.03c-.35,.59-1.13,1.37-2.44,1.37-1.16,0-2.54-.64-2.54-3.23v-4.31h1.34v4.08c0,1.4,.43,2.34,1.64,2.34,.9,0,1.52-.62,1.77-1.22,.08-.2,.12-.44,.12-.69v-4.52h1.34v5.36Z" fill="#231f20"/>
    <path d="M307.94,152.58c0-.76-.01-1.39-.06-2h1.19l.08,1.22h.03c.37-.7,1.22-1.39,2.44-1.39,1.02,0,2.6,.61,2.6,3.14v4.4h-1.34v-4.25c0-1.19-.44-2.18-1.71-2.18-.88,0-1.57,.62-1.8,1.37-.06,.17-.09,.4-.09,.62v4.43h-1.34v-5.38Z" fill="#231f20"/>
    <path d="M322.76,147.14v8.91c0,.65,.01,1.4,.06,1.9h-1.2l-.06-1.28h-.03c-.41,.82-1.31,1.45-2.51,1.45-1.78,0-3.15-1.51-3.15-3.75-.02-2.45,1.51-3.96,3.3-3.96,1.13,0,1.89,.53,2.22,1.13h.03v-4.4h1.34Zm-1.34,6.44c0-.17-.01-.4-.06-.56-.2-.85-.93-1.55-1.93-1.55-1.39,0-2.21,1.22-2.21,2.85,0,1.49,.73,2.73,2.18,2.73,.9,0,1.72-.59,1.96-1.6,.05-.18,.06-.37,.06-.58v-1.28Z" fill="#231f20"/>
    <path d="M329.06,157.96l-.11-.93h-.04c-.41,.58-1.2,1.1-2.25,1.1-1.49,0-2.25-1.05-2.25-2.12,0-1.78,1.58-2.76,4.43-2.74v-.15c0-.61-.17-1.71-1.68-1.71-.68,0-1.4,.21-1.92,.55l-.3-.88c.61-.4,1.49-.65,2.42-.65,2.25,0,2.8,1.54,2.8,3.02v2.76c0,.64,.03,1.26,.12,1.77h-1.22Zm-.2-3.76c-1.46-.03-3.12,.23-3.12,1.66,0,.87,.58,1.28,1.26,1.28,.96,0,1.57-.61,1.78-1.23,.05-.14,.08-.29,.08-.43v-1.28Z" fill="#231f20"/>
    <path d="M332.32,152.88c0-.87-.01-1.61-.06-2.3h1.17l.04,1.45h.06c.33-.99,1.14-1.61,2.04-1.61,.15,0,.26,.02,.38,.05v1.26c-.14-.03-.27-.05-.46-.05-.94,0-1.61,.72-1.8,1.72-.03,.18-.06,.4-.06,.62v3.93h-1.33v-5.07Z" fill="#231f20"/>
    <path d="M338.85,148.51c.01,.46-.32,.82-.85,.82-.47,0-.81-.37-.81-.82s.35-.84,.84-.84,.82,.37,.82,.84Zm-1.49,9.44v-7.37h1.34v7.37h-1.34Z" fill="#231f20"/>
    <path d="M341.67,154.51c.03,1.81,1.19,2.56,2.53,2.56,.96,0,1.54-.17,2.04-.38l.23,.96c-.47,.21-1.28,.46-2.45,.46-2.27,0-3.62-1.49-3.62-3.72s1.31-3.97,3.46-3.97c2.41,0,3.05,2.12,3.05,3.47,0,.27-.03,.49-.05,.62h-5.18Zm3.93-.96c.01-.85-.35-2.18-1.86-2.18-1.36,0-1.95,1.25-2.06,2.18h3.91Z" fill="#231f20"/>
    <path d="M348.37,156.58c.4,.26,1.1,.53,1.77,.53,.97,0,1.43-.49,1.43-1.1,0-.64-.38-.99-1.37-1.35-1.32-.47-1.95-1.2-1.95-2.09,0-1.19,.96-2.16,2.54-2.16,.75,0,1.4,.21,1.81,.46l-.33,.97c-.29-.18-.82-.43-1.51-.43-.79,0-1.23,.46-1.23,1,0,.61,.44,.88,1.4,1.25,1.28,.49,1.93,1.13,1.93,2.22,0,1.29-1,2.21-2.76,2.21-.81,0-1.55-.2-2.07-.5l.33-1.02Z" fill="#231f20"/>
    <path d="M354.32,157.18c0-.55,.38-.94,.9-.94,.55,0,.9,.4,.9,.94s-.35,.94-.9,.94-.9-.41-.9-.94Zm.38-2.18l-.21-7.31h1.46l-.21,7.31h-1.04Z" fill="#231f20"/>
  </g>
  <g>
    <path d="M238.89,190.72c.34-.07,.87-.12,1.41-.12,.77,0,1.27,.13,1.64,.44,.31,.23,.5,.59,.5,1.06,0,.58-.38,1.08-1.01,1.31v.02c.57,.14,1.23,.61,1.23,1.5,0,.52-.2,.91-.51,1.2-.42,.38-1.09,.56-2.07,.56-.53,0-.94-.04-1.2-.07v-5.89Zm.77,2.45h.7c.82,0,1.3-.43,1.3-1,0-.7-.53-.98-1.31-.98-.35,0-.56,.03-.68,.05v1.93Zm0,2.87c.15,.03,.37,.04,.65,.04,.8,0,1.54-.29,1.54-1.16,0-.82-.7-1.15-1.55-1.15h-.64v2.28Z" fill="#231f20" stroke="#fff" stroke-width=".1"/>
    <path d="M243.68,190.32h.78v6.31h-.78v-6.31Z" fill="#231f20" stroke="#fff" stroke-width=".1"/>
    <path d="M249.66,194.44c0,1.59-1.1,2.28-2.14,2.28-1.16,0-2.06-.85-2.06-2.21,0-1.44,.94-2.28,2.13-2.28s2.07,.9,2.07,2.21Zm-3.41,.04c0,.94,.54,1.65,1.31,1.65s1.31-.7,1.31-1.67c0-.73-.36-1.65-1.29-1.65s-1.32,.85-1.32,1.67Z" fill="#231f20" stroke="#fff" stroke-width=".1"/>
    <path d="M253.71,196.46c-.2,.11-.66,.25-1.23,.25-1.3,0-2.14-.88-2.14-2.19s.91-2.28,2.31-2.28c.46,0,.87,.12,1.08,.22l-.18,.6c-.19-.11-.48-.2-.91-.2-.99,0-1.52,.73-1.52,1.63,0,.99,.64,1.61,1.49,1.61,.44,0,.74-.12,.96-.21l.13,.59Z" fill="#231f20" stroke="#fff" stroke-width=".1"/>
    <path d="M255.4,194.3h.02c.11-.15,.26-.34,.38-.49l1.26-1.48h.94l-1.66,1.77,1.89,2.53h-.95l-1.48-2.06-.4,.44v1.62h-.77v-6.31h.77v3.98Z" fill="#231f20" stroke="#fff" stroke-width=".1"/>
    <path d="M224.55,201.38c.34-.07,.87-.12,1.41-.12,.77,0,1.27,.13,1.64,.44,.31,.23,.5,.59,.5,1.06,0,.58-.38,1.08-1.01,1.31v.02c.57,.14,1.23,.61,1.23,1.5,0,.52-.2,.91-.51,1.2-.42,.38-1.09,.56-2.07,.56-.53,0-.94-.04-1.2-.07v-5.89Zm.77,2.45h.7c.82,0,1.3-.43,1.3-1,0-.7-.53-.98-1.31-.98-.36,0-.56,.03-.68,.05v1.93Zm0,2.87c.15,.03,.37,.04,.65,.04,.8,0,1.54-.29,1.54-1.16,0-.82-.7-1.15-1.55-1.15h-.64v2.28Z" fill="#231f20" stroke="#fff" stroke-width=".1"/>
    <path d="M233.27,205.1c0,1.59-1.1,2.28-2.14,2.28-1.16,0-2.06-.85-2.06-2.21,0-1.44,.94-2.28,2.13-2.28s2.07,.9,2.07,2.21Zm-3.41,.04c0,.94,.54,1.65,1.31,1.65s1.31-.7,1.31-1.67c0-.73-.36-1.65-1.29-1.65s-1.32,.85-1.32,1.67Z" fill="#231f20" stroke="#fff" stroke-width=".1"/>
    <path d="M237.85,206.11c0,.44,0,.83,.04,1.17h-.69l-.04-.7h-.02c-.2,.35-.66,.8-1.42,.8-.67,0-1.48-.37-1.48-1.88v-2.51h.78v2.38c0,.82,.25,1.37,.96,1.37,.52,0,.89-.36,1.03-.71,.04-.12,.07-.26,.07-.4v-2.64h.78v3.13Z" fill="#231f20" stroke="#fff" stroke-width=".1"/>
    <path d="M239.15,204.15c0-.44,0-.81-.04-1.16h.69l.04,.71h.02c.21-.41,.71-.81,1.42-.81,.59,0,1.52,.36,1.52,1.83v2.57h-.78v-2.48c0-.69-.26-1.27-.99-1.27-.51,0-.91,.36-1.05,.8-.04,.1-.05,.23-.05,.36v2.58h-.78v-3.13Z" fill="#231f20" stroke="#fff" stroke-width=".1"/>
    <path d="M247.79,200.98v5.2c0,.38,0,.82,.04,1.11h-.7l-.04-.75h-.02c-.24,.48-.76,.84-1.47,.84-1.04,0-1.84-.88-1.84-2.18,0-1.43,.88-2.31,1.93-2.31,.66,0,1.1,.31,1.3,.66h.02v-2.57h.78Zm-.78,3.76c0-.1,0-.23-.04-.33-.12-.5-.54-.91-1.13-.91-.81,0-1.29,.71-1.29,1.66,0,.87,.43,1.59,1.27,1.59,.52,0,1-.35,1.15-.93,.03-.11,.04-.21,.04-.34v-.75Z" fill="#231f20" stroke="#fff" stroke-width=".1"/>
    <path d="M251.47,207.28l-.06-.54h-.03c-.24,.34-.7,.64-1.31,.64-.87,0-1.31-.61-1.31-1.23,0-1.04,.92-1.61,2.58-1.6v-.09c0-.35-.1-.99-.98-.99-.4,0-.82,.12-1.12,.32l-.18-.52c.36-.23,.87-.38,1.41-.38,1.31,0,1.63,.9,1.63,1.76v1.61c0,.37,.02,.74,.07,1.03h-.71Zm-.12-2.19c-.85-.02-1.82,.13-1.82,.97,0,.51,.34,.75,.74,.75,.56,0,.91-.36,1.04-.72,.03-.08,.04-.17,.04-.25v-.75Z" fill="#231f20" stroke="#fff" stroke-width=".1"/>
    <path d="M253.37,204.32c0-.51,0-.94-.04-1.34h.68l.03,.84h.04c.2-.58,.67-.94,1.19-.94,.09,0,.15,0,.22,.03v.74c-.08-.02-.16-.03-.27-.03-.55,0-.94,.42-1.05,1-.02,.11-.04,.23-.04,.36v2.29h-.77v-2.96Z" fill="#231f20" stroke="#fff" stroke-width=".1"/>
    <path d="M256.78,202.98l.94,2.54c.1,.28,.2,.62,.27,.88h.02c.08-.26,.17-.59,.28-.9l.85-2.52h.83l-1.17,3.06c-.56,1.47-.94,2.23-1.47,2.69-.38,.34-.76,.47-.96,.51l-.2-.66c.2-.06,.45-.19,.68-.38,.21-.17,.48-.47,.66-.87,.04-.08,.06-.14,.06-.19s-.02-.11-.05-.2l-1.59-3.96h.85Z" fill="#231f20" stroke="#fff" stroke-width=".1"/>
  </g>
  <g>
    <path d="M20.88,196.09c-.28,.14-.85,.28-1.58,.28-1.69,0-2.96-1.07-2.96-3.03s1.27-3.14,3.13-3.14c.75,0,1.22,.16,1.42,.27l-.19,.63c-.29-.14-.71-.25-1.21-.25-1.4,0-2.34,.9-2.34,2.47,0,1.47,.84,2.41,2.3,2.41,.47,0,.95-.1,1.26-.25l.16,.61Z" fill="#231f20"/>
    <path d="M25.62,194.1c0,1.59-1.1,2.28-2.14,2.28-1.16,0-2.06-.85-2.06-2.21,0-1.44,.94-2.28,2.13-2.28s2.07,.9,2.07,2.21Zm-3.41,.04c0,.94,.54,1.65,1.31,1.65s1.31-.7,1.31-1.67c0-.73-.36-1.65-1.29-1.65s-1.32,.85-1.32,1.67Z" fill="#231f20"/>
    <path d="M26.6,193.15c0-.44,0-.81-.04-1.16h.68l.04,.69h.03c.24-.41,.64-.79,1.35-.79,.59,0,1.03,.36,1.22,.86h.02c.13-.24,.3-.43,.48-.56,.26-.2,.54-.3,.95-.3,.57,0,1.41,.37,1.41,1.87v2.53h-.76v-2.43c0-.83-.3-1.32-.93-1.32-.44,0-.79,.33-.92,.71-.04,.11-.06,.25-.06,.39v2.66h-.76v-2.58c0-.68-.3-1.18-.9-1.18-.49,0-.84,.39-.97,.78-.04,.12-.06,.25-.06,.38v2.59h-.76v-3.13Z" fill="#231f20"/>
    <path d="M34.01,193.39c0-.55-.02-.99-.04-1.4h.7l.04,.74h.02c.32-.52,.83-.83,1.53-.83,1.04,0,1.82,.88,1.82,2.18,0,1.55-.94,2.31-1.95,2.31-.57,0-1.07-.25-1.32-.67h-.02v2.34h-.77v-4.65Zm.77,1.15c0,.12,.02,.22,.04,.32,.14,.54,.61,.91,1.17,.91,.83,0,1.31-.67,1.31-1.66,0-.86-.45-1.6-1.28-1.6-.53,0-1.03,.38-1.18,.97-.03,.1-.05,.21-.05,.32v.74Z" fill="#231f20"/>
    <path d="M39.06,193.33c0-.51,0-.94-.04-1.34h.68l.03,.84h.04c.2-.58,.67-.94,1.19-.94,.09,0,.15,0,.22,.03v.74c-.08-.02-.16-.03-.27-.03-.55,0-.94,.42-1.05,1-.02,.11-.04,.23-.04,.36v2.29h-.77v-2.96Z" fill="#231f20"/>
    <path d="M42.31,194.28c.02,1.06,.69,1.49,1.47,1.49,.56,0,.9-.1,1.19-.22l.13,.56c-.28,.12-.75,.27-1.43,.27-1.32,0-2.11-.87-2.11-2.17s.76-2.32,2.02-2.32c1.4,0,1.78,1.23,1.78,2.02,0,.16-.02,.28-.03,.36h-3.02Zm2.29-.56c0-.5-.2-1.27-1.08-1.27-.79,0-1.14,.73-1.2,1.27h2.28Z" fill="#231f20"/>
    <path d="M46.22,195.49c.23,.15,.64,.31,1.03,.31,.57,0,.83-.28,.83-.64,0-.37-.22-.58-.8-.79-.77-.28-1.14-.7-1.14-1.22,0-.69,.56-1.26,1.48-1.26,.44,0,.82,.12,1.06,.27l-.2,.57c-.17-.11-.48-.25-.88-.25-.46,0-.72,.27-.72,.59,0,.35,.26,.52,.82,.73,.75,.28,1.13,.66,1.13,1.3,0,.75-.59,1.29-1.61,1.29-.47,0-.91-.12-1.21-.29l.2-.6Z" fill="#231f20"/>
    <path d="M49.74,195.49c.23,.15,.64,.31,1.03,.31,.57,0,.83-.28,.83-.64,0-.37-.22-.58-.8-.79-.77-.28-1.14-.7-1.14-1.22,0-.69,.56-1.26,1.48-1.26,.44,0,.82,.12,1.06,.27l-.2,.57c-.17-.11-.48-.25-.88-.25-.46,0-.72,.27-.72,.59,0,.35,.26,.52,.82,.73,.75,.28,1.13,.66,1.13,1.3,0,.75-.59,1.29-1.61,1.29-.47,0-.91-.12-1.21-.29l.2-.6Z" fill="#231f20"/>
    <path d="M53.8,194.28c.02,1.06,.69,1.49,1.47,1.49,.56,0,.9-.1,1.19-.22l.13,.56c-.28,.12-.75,.27-1.43,.27-1.32,0-2.11-.87-2.11-2.17s.76-2.32,2.02-2.32c1.4,0,1.78,1.23,1.78,2.02,0,.16-.02,.28-.03,.36h-3.02Zm2.29-.56c0-.5-.2-1.27-1.08-1.27-.79,0-1.14,.73-1.2,1.27h2.28Z" fill="#231f20"/>
    <path d="M61.53,189.98v5.2c0,.38,0,.82,.04,1.11h-.7l-.04-.75h-.02c-.24,.48-.76,.84-1.47,.84-1.04,0-1.84-.88-1.84-2.18,0-1.43,.88-2.31,1.93-2.31,.66,0,1.1,.31,1.3,.66h.02v-2.57h.78Zm-.78,3.76c0-.1,0-.23-.04-.33-.12-.5-.54-.91-1.13-.91-.81,0-1.29,.71-1.29,1.66,0,.87,.43,1.59,1.27,1.59,.52,0,1-.35,1.15-.93,.03-.11,.04-.21,.04-.34v-.75Z" fill="#231f20"/>
    <path d="M45.47,201.04c.47-.07,1.03-.12,1.64-.12,1.11,0,1.9,.26,2.42,.75,.53,.49,.84,1.18,.84,2.15s-.3,1.78-.86,2.33c-.56,.56-1.48,.86-2.65,.86-.55,0-1.01-.03-1.4-.07v-5.89Zm.77,5.29c.2,.04,.48,.04,.78,.04,1.65,0,2.55-.92,2.55-2.54,0-1.41-.79-2.31-2.42-2.31-.4,0-.7,.04-.91,.08v4.72Z" fill="#231f20"/>
    <path d="M53.74,206.95l-.06-.54h-.03c-.24,.34-.7,.64-1.31,.64-.87,0-1.31-.61-1.31-1.23,0-1.04,.92-1.61,2.58-1.6v-.09c0-.35-.1-.99-.98-.99-.4,0-.82,.12-1.12,.32l-.18-.52c.36-.23,.87-.38,1.41-.38,1.31,0,1.63,.9,1.63,1.76v1.61c0,.37,.02,.74,.07,1.03h-.71Zm-.12-2.19c-.85-.02-1.82,.13-1.82,.97,0,.51,.34,.75,.74,.75,.56,0,.91-.36,1.04-.72,.03-.08,.04-.17,.04-.25v-.75Z" fill="#231f20"/>
    <path d="M56.54,201.41v1.23h1.12v.6h-1.12v2.32c0,.53,.15,.83,.59,.83,.2,0,.35-.03,.45-.05l.04,.59c-.15,.06-.39,.11-.69,.11-.36,0-.66-.12-.84-.33-.22-.23-.3-.61-.3-1.12v-2.34h-.67v-.6h.67v-1.03l.76-.2Z" fill="#231f20"/>
    <path d="M60.92,206.95l-.06-.54h-.03c-.24,.34-.7,.64-1.31,.64-.87,0-1.31-.61-1.31-1.23,0-1.04,.92-1.61,2.58-1.6v-.09c0-.35-.1-.99-.98-.99-.4,0-.82,.12-1.12,.32l-.18-.52c.36-.23,.87-.38,1.41-.38,1.31,0,1.63,.9,1.63,1.76v1.61c0,.37,.02,.74,.07,1.03h-.71Zm-.12-2.19c-.85-.02-1.82,.13-1.82,.97,0,.51,.34,.75,.74,.75,.56,0,.91-.36,1.04-.72,.03-.08,.04-.17,.04-.25v-.75Z" fill="#231f20"/>
  </g>
  <g>
    <line x1="149.95" y1="173.14" x2="363.17" y2="173.14" fill="none" stroke="#231f20" stroke-miterlimit="10"/>
    <path d="M369.21,173.14c-2.84,1.05-6.36,2.85-8.55,4.76l1.72-4.76-1.72-4.75c2.18,1.9,5.71,3.7,8.55,4.75Z" fill="#231f20"/>
  </g>
  <g>
    <line x1="479.56" y1="174.23" x2="560.22" y2="174.23" fill="none" stroke="#231f20" stroke-miterlimit="10"/>
    <path d="M566.26,174.23c-2.84,1.05-6.36,2.85-8.55,4.76l1.72-4.76-1.72-4.75c2.18,1.9,5.71,3.7,8.55,4.75Z" fill="#231f20"/>
  </g>
  <g>
    <path d="M72.88,71.18h-.02l-1,.54-.15-.6,1.26-.67h.67v5.77h-.75v-5.04Z" fill="#231f20"/>
    <path d="M79.58,73.28c0,1.96-.73,3.05-2.01,3.05-1.13,0-1.89-1.06-1.91-2.97,0-1.94,.83-3,2.01-3s1.91,1.08,1.91,2.92Zm-3.13,.09c0,1.5,.46,2.35,1.17,2.35,.8,0,1.18-.93,1.18-2.41s-.36-2.35-1.17-2.35c-.68,0-1.18,.83-1.18,2.41Z" fill="#231f20"/>
    <path d="M81.99,71.18h-.02l-1,.54-.15-.6,1.26-.67h.67v5.77h-.75v-5.04Z" fill="#231f20"/>
    <path d="M88.69,73.28c0,1.96-.73,3.05-2.01,3.05-1.13,0-1.89-1.06-1.91-2.97,0-1.94,.83-3,2.01-3s1.91,1.08,1.91,2.92Zm-3.13,.09c0,1.5,.46,2.35,1.17,2.35,.8,0,1.18-.93,1.18-2.41s-.36-2.35-1.17-2.35c-.68,0-1.18,.83-1.18,2.41Z" fill="#231f20"/>
    <path d="M91.11,71.18h-.02l-1,.54-.15-.6,1.26-.67h.67v5.77h-.75v-5.04Z" fill="#231f20"/>
    <path d="M97.8,73.28c0,1.96-.73,3.05-2.01,3.05-1.13,0-1.89-1.06-1.91-2.97,0-1.94,.83-3,2.01-3s1.91,1.08,1.91,2.92Zm-3.13,.09c0,1.5,.46,2.35,1.17,2.35,.8,0,1.18-.93,1.18-2.41s-.36-2.35-1.17-2.35c-.68,0-1.18,.83-1.18,2.41Z" fill="#231f20"/>
    <path d="M102.36,73.28c0,1.96-.73,3.05-2.01,3.05-1.13,0-1.89-1.06-1.91-2.97,0-1.94,.83-3,2.01-3s1.91,1.08,1.91,2.92Zm-3.13,.09c0,1.5,.46,2.35,1.17,2.35,.8,0,1.18-.93,1.18-2.41s-.36-2.35-1.17-2.35c-.68,0-1.18,.83-1.18,2.41Z" fill="#231f20"/>
    <path d="M104.77,71.18h-.02l-1,.54-.15-.6,1.26-.67h.67v5.77h-.75v-5.04Z" fill="#231f20"/>
    <path d="M111.47,73.28c0,1.96-.73,3.05-2.01,3.05-1.13,0-1.89-1.06-1.91-2.97,0-1.94,.83-3,2.01-3s1.91,1.08,1.91,2.92Zm-3.13,.09c0,1.5,.46,2.35,1.17,2.35,.8,0,1.18-.93,1.18-2.41s-.36-2.35-1.17-2.35c-.68,0-1.18,.83-1.18,2.41Z" fill="#231f20"/>
    <path d="M113.89,71.18h-.02l-1,.54-.15-.6,1.26-.67h.67v5.77h-.75v-5.04Z" fill="#231f20"/>
    <path d="M120.58,73.28c0,1.96-.73,3.05-2.01,3.05-1.13,0-1.89-1.06-1.91-2.97,0-1.94,.83-3,2.01-3s1.91,1.08,1.91,2.92Zm-3.13,.09c0,1.5,.46,2.35,1.17,2.35,.8,0,1.18-.93,1.18-2.41s-.36-2.35-1.17-2.35c-.68,0-1.18,.83-1.18,2.41Z" fill="#231f20"/>
    <path d="M123,71.18h-.02l-1,.54-.15-.6,1.26-.67h.67v5.77h-.75v-5.04Z" fill="#231f20"/>
    <path d="M127.56,71.18h-.02l-1,.54-.15-.6,1.26-.67h.67v5.77h-.75v-5.04Z" fill="#231f20"/>
    <path d="M132.11,71.18h-.02l-1,.54-.15-.6,1.26-.67h.67v5.77h-.75v-5.04Z" fill="#231f20"/>
    <path d="M138.81,73.28c0,1.96-.73,3.05-2.01,3.05-1.13,0-1.89-1.06-1.91-2.97,0-1.94,.83-3,2.01-3s1.91,1.08,1.91,2.92Zm-3.13,.09c0,1.5,.46,2.35,1.17,2.35,.8,0,1.18-.93,1.18-2.41s-.36-2.35-1.17-2.35c-.68,0-1.18,.83-1.18,2.41Z" fill="#231f20"/>
    <path d="M139.59,75.77c0-.33,.22-.56,.53-.56s.52,.23,.52,.56-.2,.56-.53,.56c-.31,0-.52-.24-.52-.56Z" fill="#231f20"/>
    <path d="M141.43,75.77c0-.33,.22-.56,.53-.56s.52,.23,.52,.56-.2,.56-.53,.56c-.31,0-.52-.24-.52-.56Z" fill="#231f20"/>
    <path d="M143.27,75.77c0-.33,.22-.56,.53-.56s.52,.23,.52,.56-.2,.56-.53,.56c-.31,0-.52-.24-.52-.56Z" fill="#231f20"/>
    <path d="M145.11,75.77c0-.33,.22-.56,.53-.56s.52,.23,.52,.56-.2,.56-.53,.56c-.31,0-.52-.24-.52-.56Z" fill="#231f20"/>
  </g>
</svg>